<svg xmlns="http://www.w3.org/2000/svg" viewBox="0 0 402 102" fill="#fff">
  <path fill="#000" d="M0 0h402v102H0z"/>
  <path fill="#fff" d="M85.9 71.9V29.7h17.9c8.2 0 13.5 5.4 13.5 12.8 0 7.5-5.3 12.8-13.5 12.8h-9.5v16.6H85.9zm8.4-24h9.1c3.5 0 5.7-2.3 5.7-5.4 0-3-2.2-5.4-5.7-5.4h-9.1v10.8zM157.9 71.9l-7.1-12.3h-7.8v12.3h-8.4V29.7h17.9c8.2 0 13.5 5.4 13.5 12.8 0 5.2-2.6 9.2-7 11.2l7.8 13.1v5.1h-8.9zm-14.9-19.7h9.1c3.5 0 5.7-2.3 5.7-5.4 0-3-2.2-5.4-5.7-5.4H143v10.8zM199.8 71.9l-2.6-7.2h-14.5l-2.6 7.2h-8.9l13.8-37.4h9.9l13.8 37.4h-8.9zm-14.7-14.6h9.7l-4.8-13.3-4.9 13.3zM234.7 72.8c-11.7 0-19.9-8.3-19.9-19.9v-3.3c0-11.6 8.2-19.9 19.9-19.9 8.1 0 14.8 3.9 17.8 10.5l-7.3 3.8c-1.7-3.7-5.4-6-10.5-6-6.5 0-11.2 4.7-11.2 11.6v3.3c0 6.9 4.7 11.6 11.2 11.6 5.1 0 8.8-2.3 10.5-6l7.3 3.8c-3 6.6-9.7 10.5-17.8 10.5zM287.9 71.9V53.2h-15.8v18.7h-8.4V29.7h8.4v16.1h15.8V29.7h8.4v42.2h-8.4zM316.8 71.9V29.7h27.7v7.4h-19.3v10h17.9v7.4h-17.9v10h19.3v7.4h-27.7z"/>
</svg>
